<svg width="32" height="32" viewBox="0 0 32 32" fill="none" xmlns="http://www.w3.org/2000/svg">
<path d="M22 18C20.3461 18.3834 18.6219 18.3394 16.9897 17.8722C15.3575 17.405 13.8711 16.5299 12.6706 15.3294C11.4701 14.1289 10.595 12.6426 10.1278 11.0104C9.66059 9.37817 9.61661 7.65389 10 6C8.26191 6.40293 6.66326 7.26355 5.36989 8.4926C4.07651 9.72164 3.13551 11.2743 2.6445 12.9896C2.15348 14.7049 2.13033 16.5204 2.57745 18.2477C3.02457 19.9749 3.92567 21.5511 5.18729 22.8127C6.44891 24.0743 8.0251 24.9754 9.75237 25.4226C11.4796 25.8697 13.2951 25.8465 15.0104 25.3555C16.7257 24.8645 18.2784 23.9235 19.5074 22.6301C20.7365 21.3368 21.5971 19.7381 22 18Z" stroke="#F2EDE4" stroke-width="1.5" stroke-linejoin="round"/>
</svg>
